<?xml version="1.0" encoding="UTF-8"?>
<svg version="1.1" xmlns="http://www.w3.org/2000/svg" width="2000" height="2000">
<path d="M0 0 C5.36393249 3.18509479 10.75440413 6.32434728 16.14453125 9.46484375 C18.2083349 10.66796605 20.27213697 11.87109108 22.3359375 13.07421875 C23.88692139 13.97817383 23.88692139 13.97817383 25.46923828 14.90039062 C29.51234391 17.25712482 33.55468494 19.61516824 37.59692383 21.97338867 C39.59278386 23.13773558 41.58871527 24.30196014 43.5847168 25.46606445 C48.56150748 28.36868695 53.53746934 31.27271187 58.51171875 34.1796875 C60.49342431 35.33735133 62.4751952 36.49490334 64.45703125 37.65234375 C65.43389893 38.22291504 66.4107666 38.79348633 67.41723633 39.38134766 C73.88446376 43.15402905 80.36780644 46.89779006 86.859375 50.62841797 C92.10652803 53.64643253 97.34524997 56.67887909 102.58203125 59.71484375 C103.31083496 60.13491699 104.03963867 60.55499023 104.79052734 60.98779297 C123.89506565 72.04727988 137.04892826 86.03583383 143.95703125 107.33984375 C149.06058822 128.14005492 146.42982537 150.27907243 135.58203125 168.71484375 C123.13790213 188.84284778 101.57517596 199.42994778 81.68359375 210.6796875 C75.37849174 214.24620134 69.12371887 217.8924587 62.89453125 221.58984375 C62.00515869 222.11763428 61.11578613 222.6454248 60.19946289 223.18920898 C58.48020184 224.21032547 56.76119864 225.23187626 55.04248047 226.25390625 C51.18692982 228.54321118 47.32247507 230.81729535 43.45703125 233.08984375 C42.83094971 233.45835449 42.20486816 233.82686523 41.55981445 234.20654297 C40.63881958 234.74819092 40.63881958 234.74819092 39.69921875 235.30078125 C39.10877274 235.66642685 38.51832672 236.03207245 37.9099884 236.40879822 C35.58203125 237.71484375 35.58203125 237.71484375 32.60385132 238.93486023 C29.07668585 240.5463341 26.43064633 242.06939071 23.58203125 244.71484375 C21.84391415 249.88130275 22.03847841 254.90030645 22.19140625 260.2734375 C22.19134986 261.78801881 22.18599864 263.30260833 22.17559814 264.81715393 C22.16246193 268.78567311 22.22080522 272.74998244 22.29449463 276.7177124 C22.35702299 280.77331239 22.35135024 284.82876835 22.3515625 288.88476562 C22.36195803 296.82955107 22.44792882 304.77118752 22.58203125 312.71484375 C23.26701691 312.22892761 23.95200256 311.74301147 24.65774536 311.24237061 C25.55717865 310.60776917 26.45661194 309.97316772 27.38330078 309.31933594 C28.27453644 308.6890448 29.16577209 308.05875366 30.08401489 307.40936279 C40.56847047 300.29727581 54.07897719 297.36769309 66.58203125 296.71484375 C67.8040625 296.63556641 67.8040625 296.63556641 69.05078125 296.5546875 C88.82682943 295.86967378 106.66178154 302.37582308 121.20703125 315.77734375 C141.29646264 336.684575 140.74896513 366.17625583 140.6796875 393.203125 C140.67781894 395.35930854 140.67639711 397.51549251 140.67539978 399.67167664 C140.67160906 405.30546268 140.66180877 410.93922233 140.6506958 416.57299805 C140.63859329 423.35471807 140.63406302 430.13644698 140.62824249 436.91817474 C140.61859471 447.18374935 140.59941417 457.44926622 140.58203125 467.71484375 C124.41203125 467.71484375 108.24203125 467.71484375 91.58203125 467.71484375 C91.53304687 461.15222656 91.4840625 454.58960938 91.43359375 447.828125 C91.39817224 443.64907393 91.36219215 439.47004239 91.32421875 435.29101562 C91.26411318 428.67052128 91.20597915 422.05005398 91.16015625 415.42944336 C91.12304692 410.08659263 91.07662034 404.7438939 91.02396774 399.40117455 C91.00555912 397.37166216 90.99040232 395.34211737 90.97868729 393.31255531 C91.30838116 369.03672427 91.30838116 369.03672427 80.9140625 347.73828125 C74.75538438 342.01648876 66.88223523 339.72791494 58.58203125 339.71484375 C48.64238985 340.45460055 39.67292823 343.04046948 32.70703125 350.46484375 C25.03581713 360.10349866 23.2939724 371.46361706 23.26318359 383.47900391 C23.25313797 384.3972998 23.24309235 385.3155957 23.23274231 386.26171875 C23.20216117 389.25910893 23.18494562 392.25641087 23.16796875 395.25390625 C23.14923689 397.3471247 23.129662 399.44033575 23.10928345 401.53353882 C23.05816945 407.01442081 23.01843327 412.49532723 22.98114014 417.97631836 C22.93389397 424.56781621 22.8723857 431.15919484 22.81329346 437.75059509 C22.72533425 447.7386293 22.65538873 457.72664359 22.58203125 467.71484375 C6.41203125 467.71484375 -9.75796875 467.71484375 -26.41796875 467.71484375 C-26.41796875 401.71484375 -26.41796875 335.71484375 -26.41796875 267.71484375 C-29.38796875 267.05484375 -32.35796875 266.39484375 -35.41796875 265.71484375 C-39.97838451 263.03930571 -44.26387096 258.96102413 -46.01171875 253.85546875 C-47.46041975 246.22192884 -47.67421068 238.40385118 -43.19018555 231.77856445 C-41.26362468 229.53511232 -39.52223528 228.34881589 -36.9609375 226.88671875 C-35.62579102 226.11533569 -35.62579102 226.11533569 -34.26367188 225.32836914 C-32.85504883 224.52967407 -32.85504883 224.52967407 -31.41796875 223.71484375 C-29.53629214 222.62528697 -27.65478625 221.53543531 -25.7734375 220.4453125 C-23.71775527 219.26378801 -21.66175018 218.08282512 -19.60546875 216.90234375 C-9.97638221 211.36107697 -0.37341448 205.77728038 9.20703125 200.15234375 C10.12169662 199.6153334 10.12169662 199.6153334 11.05484009 199.06747437 C12.28217387 198.34685309 13.50950442 197.62622629 14.73683167 196.90559387 C15.33801315 196.55260727 15.93919464 196.19962067 16.55859375 195.8359375 C17.15498154 195.48573044 17.75136932 195.13552338 18.36582947 194.77470398 C24.09783187 191.40985005 29.83912906 188.06104851 35.58203125 184.71484375 C44.60818697 179.4530895 53.62916623 174.18256139 62.64453125 168.90234375 C63.2654364 168.53882813 63.88634155 168.1753125 64.52606201 167.80078125 C72.73362204 162.99419463 80.91364684 158.14726715 89.02734375 153.18359375 C91.58203125 151.71484375 91.58203125 151.71484375 94.58203125 150.71484375 C95.69572197 148.87359244 95.69572197 148.87359244 96.58203125 146.71484375 C97.11183594 145.79058594 97.11183594 145.79058594 97.65234375 144.84765625 C101.68295721 137.17456248 101.74933522 129.0678649 99.921875 120.6875 C94.81232139 104.91645357 82.43237029 98.6482391 68.83203125 90.90234375 C66.51252167 89.57247388 64.1934422 88.24188326 61.875 86.91015625 C61.27819931 86.56765335 60.68139862 86.22515045 60.06651306 85.87226868 C53.4037216 82.04508023 46.77187477 78.16550398 40.14453125 74.27734375 C39.54001129 73.92289185 38.93549133 73.56843994 38.31265259 73.20324707 C30.64786276 68.70795589 23.00029402 64.18475217 15.36376953 59.64160156 C3.88980962 52.81653036 -7.64330703 46.11236269 -19.25634766 39.52783203 C-25.73815219 35.84546582 -32.1609348 32.08577045 -38.53833008 28.22558594 C-54.82776644 17.61872013 -54.82776644 17.61872013 -73.5 16.72265625 C-84.73411938 20.54255762 -92.41541139 26.41313546 -97.79296875 36.96484375 C-100.43045387 42.52189797 -101.54381436 46.4973092 -101.55663395 52.67451763 C-101.55947617 53.39047286 -101.56231839 54.10642809 -101.56524673 54.84407893 C-101.5736193 57.26151715 -101.57486394 59.67890762 -101.57618713 62.09635925 C-101.58075074 63.83961534 -101.58575046 65.58287032 -101.5911507 67.32612401 C-101.60476414 72.13080771 -101.61215942 76.93548431 -101.61857736 81.74018228 C-101.62656725 86.91605551 -101.64026987 92.09191391 -101.65328979 97.26777649 C-101.6750726 106.24008407 -101.69321048 115.21239313 -101.70889473 124.18471336 C-101.73157694 137.1572914 -101.75972204 150.12985302 -101.78921401 163.10241715 C-101.83691016 184.14794208 -101.88016885 205.19347372 -101.9206543 226.23901367 C-101.95999894 246.68661013 -102.00142268 267.13420062 -102.0456543 287.58178711 C-102.04837857 288.84151107 -102.05110284 290.10123504 -102.05390967 291.39913245 C-102.06758897 297.71859869 -102.08130928 304.03806484 -102.09504998 310.35753095 C-102.20904653 362.80995626 -102.3155762 415.26239461 -102.41796875 467.71484375 C-116.60796875 467.71484375 -130.79796875 467.71484375 -145.41796875 467.71484375 C-145.4632015 414.84683845 -145.4989988 361.9788378 -145.52009941 309.11081698 C-145.52260076 302.86627704 -145.52518941 296.62173715 -145.52783203 290.37719727 C-145.52835665 289.13404556 -145.52888127 287.89089386 -145.52942179 286.61007089 C-145.5381194 266.4931347 -145.55388583 246.37620996 -145.57227434 226.25928055 C-145.5909913 205.61049224 -145.60208928 184.96170992 -145.60614574 164.31291348 C-145.60888707 151.57619217 -145.61753886 138.83950325 -145.63380168 126.10279191 C-145.64439072 117.36337818 -145.64756503 108.62398115 -145.6449715 99.88456147 C-145.64369321 94.845843 -145.64562377 89.80718104 -145.6563797 84.76847267 C-145.66617217 80.14715186 -145.66656506 75.5259251 -145.65976654 70.90459979 C-145.65892732 69.24081578 -145.6614133 67.57702569 -145.66773511 65.91325348 C-145.76215209 39.50966969 -140.53207945 15.95413155 -121.41015625 -3.3828125 C-82.66373476 -41.33071865 -40.64153981 -24.13384199 0 0 Z " fill="#09243F" transform="translate(476.41796875,652.28515625)"/>
<path d="M0 0 C1.00546875 0.17144531 2.0109375 0.34289062 3.046875 0.51953125 C14.79556362 2.98040522 27.0243477 8.98093649 36 17 C36.66128906 17.56976562 37.32257813 18.13953125 38.00390625 18.7265625 C50.5870047 30.33071022 56.10401774 47.06512545 57.18126297 63.81911469 C57.24261861 66.64014671 57.24803782 69.45475713 57.22705078 72.27636719 C57.22734283 73.33150513 57.22763489 74.38664307 57.22793579 75.47375488 C57.22655736 78.91488255 57.21106699 82.35578579 57.1953125 85.796875 C57.19157707 88.20110964 57.18873261 90.60534581 57.18673706 93.00958252 C57.17914231 99.30265591 57.15952994 105.59563532 57.1373291 111.88867188 C57.11678064 118.32420582 57.10771618 124.75975512 57.09765625 131.1953125 C57.07627978 143.7969227 57.04113194 156.39843879 57 169 C44.79 169 32.58 169 20 169 C18.35 163.39 16.7 157.78 15 152 C13.865625 152.86625 12.73125 153.7325 11.5625 154.625 C10.044052 155.75321748 8.52312322 156.87810219 7 158 C6.31421875 158.51433594 5.6284375 159.02867187 4.921875 159.55859375 C-9.26143353 169.67076742 -26.244472 172.57014489 -43.3125 172.4375 C-43.99220856 172.43445862 -44.67191711 172.43141724 -45.3722229 172.42828369 C-64.80001167 172.29978358 -81.27138186 168.40559987 -95.65625 154.49609375 C-105.4341372 144.08264388 -107.62008874 131.6032869 -107.47021484 117.74609375 C-106.98766485 103.46054968 -102.13890175 92.64613501 -91.8125 82.75 C-77.97620198 71.18079811 -61.67117086 69.51905762 -44.3203125 69.70703125 C-42.77090878 69.71264426 -41.22149963 69.71690626 -39.67208862 69.71989441 C-35.64435457 69.73120933 -31.61695837 69.76055683 -27.58935547 69.79400635 C-23.45935635 69.82499975 -19.32930128 69.83846151 -15.19921875 69.85351562 C-7.1326595 69.88544319 0.93362793 69.93647203 9 70 C8.72377774 67.42951478 8.43567875 64.86130285 8.140625 62.29296875 C8.02581787 61.20719543 8.02581787 61.20719543 7.90869141 60.0994873 C7.04136797 52.71250202 4.46259717 48.5798637 -0.625 43.25 C-9.28938244 36.7791321 -19.52179103 35.86106424 -30 37 C-33.6066217 37.93012875 -36.73070219 39.23015457 -40 41 C-41.6396875 41.86625 -41.6396875 41.86625 -43.3125 42.75 C-47.34761941 46.12823951 -49.66777595 50.33555191 -52 55 C-67.51 55 -83.02 55 -99 55 C-97.12811005 38.15299045 -89.13449258 23.84631623 -76 13 C-53.72909219 -2.53784266 -26.17963182 -4.5266544 0 0 Z M-56.0625 108.0625 C-59.30846674 112.98380441 -59.54001161 117.26605854 -59 123 C-56.85413031 128.98584704 -53.42401927 131.63648916 -48 134.6875 C-37.5715608 139.24994215 -24.3299658 137.96311138 -13.8359375 134.2578125 C-4.2021277 129.98496573 2.98085965 122.10339443 7.2734375 112.56640625 C7.96865037 110.11073498 8.28009146 107.87238151 8.54541016 105.33959961 C8.63166656 104.52744492 8.71792297 103.71529022 8.80679321 102.87852478 C8.87055145 102.2586116 8.93430969 101.63869843 9 101 C1.77763004 100.89805018 -5.4445523 100.82830461 -12.66748047 100.78027344 C-15.12132706 100.76023676 -17.57512637 100.73299968 -20.02880859 100.69824219 C-23.56880403 100.64937502 -27.10816468 100.6269508 -30.6484375 100.609375 C-31.73426117 100.58872986 -32.82008484 100.56808472 -33.93881226 100.54681396 C-42.0709484 100.54445228 -50.43262219 101.60099386 -56.0625 108.0625 Z " fill="#09243F" transform="translate(747,951)"/>
<path d="M0 0 C17.99401925 15.65506254 28.3462169 36.75599242 30.0625 60.5625 C31.31836311 84.91532372 25.00252197 107.55300494 9.1640625 126.265625 C-7.5415714 144.52382711 -31.50148567 154.23257658 -56.06274414 155.68847656 C-82.92499741 156.63935278 -109.37068577 150.65460812 -129.9375 132.5625 C-130.69933594 131.89605469 -131.46117187 131.22960938 -132.24609375 130.54296875 C-146.94503571 116.81206803 -155.99475659 96.24076601 -157.06347656 76.20019531 C-157.85735021 49.74109014 -152.85046275 26.76536294 -134.25390625 6.91015625 C-100.04865778 -27.75654582 -38.07445442 -30.09194811 0 0 Z M-96.375 34.125 C-105.15941515 43.85397592 -109.52969643 56.87815735 -109.18359375 69.8671875 C-108.00613922 82.76311801 -103.59056024 93.96548966 -94 102.84765625 C-84.00091529 111.16128918 -72.45393162 114.06740871 -59.55078125 113.3828125 C-46.9859738 112.02819079 -36.42981747 107.03210797 -27.9375 97.5625 C-18.88594588 85.45406137 -17.3927318 72.28968549 -18.9375 57.5625 C-21.15761787 45.45856148 -27.81587034 36.18379868 -37.640625 29.0625 C-55.73665132 17.2446869 -80.36598819 19.78166572 -96.375 34.125 Z " fill="#09243F" transform="translate(1102.9375,969.4375)"/>
<path d="M0 0 C17.82 0 35.64 0 54 0 C60.74376417 13.48752834 60.74376417 13.48752834 63.26953125 19.45703125 C63.68716484 20.43846603 63.68716484 20.43846603 64.11323547 21.43972778 C64.70803041 22.83820684 65.30122288 24.23736844 65.8928833 25.63717651 C67.50766993 29.45690194 69.13516771 33.27121029 70.76171875 37.0859375 C71.10195068 37.88456711 71.44218262 38.68319672 71.79272461 39.50602722 C76.54832378 50.65296622 81.41688473 61.75095508 86.27661133 72.8527832 C89.20984875 79.55777614 92.13720717 86.26515092 94.9921875 93.00390625 C95.38519043 93.93146729 95.77819336 94.85902832 96.18310547 95.81469727 C97 98 97 98 97 100 C97.66 100 98.32 100 99 100 C99.09861328 99.20078125 99.19722656 98.4015625 99.29882812 97.578125 C100.17449941 93.10951831 101.65090957 89.01688257 103.21875 84.75 C103.54891113 83.83896515 103.87907227 82.9279303 104.21923828 81.98928833 C105.30756925 78.99091757 106.40355472 75.9954121 107.5 73 C108.25875823 70.9166112 109.01721766 68.83311357 109.77539062 66.74951172 C112.17482745 60.1631217 114.58681036 53.58136089 117 47 C117.81772638 44.76725921 118.63543477 42.53451184 119.453125 40.30175781 C121.42106137 34.93102603 123.3934604 29.56195416 125.36987305 24.19433594 C126.12331888 22.1480363 126.87608584 20.10148658 127.62817383 18.0546875 C128.67624897 15.20463004 129.72810522 12.35599989 130.78125 9.5078125 C131.09400879 8.65591339 131.40676758 7.80401428 131.72900391 6.92630005 C133.88521187 1.11478813 133.88521187 1.11478813 135 0 C136.62674778 -0.09340434 138.25754051 -0.11745171 139.88696289 -0.11352539 C140.92796646 -0.11344986 141.96897003 -0.11337433 143.04151917 -0.11329651 C144.1737944 -0.10813522 145.30606964 -0.10297394 146.47265625 -0.09765625 C147.62543564 -0.0962413 148.77821503 -0.09482635 149.96592712 -0.09336853 C153.66481064 -0.08775005 157.36363464 -0.07519442 161.0625 -0.0625 C163.56315017 -0.05748738 166.06380129 -0.05292406 168.56445312 -0.04882812 C174.70965588 -0.03777462 180.85482369 -0.02101852 187 0 C184.90039473 7.77565983 182.04037585 15.19135786 179.01190758 22.6427021 C177.78255636 25.66817584 176.56364142 28.69782697 175.34385777 31.72716808 C174.66569109 33.41124728 173.98703892 35.09513103 173.3079443 36.77883625 C169.22814265 46.89899532 165.20031612 57.03979128 161.17031479 67.17985916 C159.3504156 71.75841383 157.52898551 76.3363589 155.70761299 80.91432762 C152.43246522 89.14636613 149.15801028 97.37867978 145.88500977 105.61157227 C140.88629372 118.18440877 135.88198932 130.75497493 130.86309624 143.31977272 C128.33323734 149.65424209 125.81162177 155.99189976 123.29686642 162.33237934 C121.75877142 166.20458314 120.21268251 170.07355714 118.66431618 173.94166374 C117.95656679 175.71428577 117.25202351 177.48819213 116.55109215 179.26352119 C109.89654388 196.10837137 102.20986858 214.50878731 85 223 C74.68859558 227.01544638 65.28300247 229.16221569 54.2265625 229.09765625 C52.99715942 229.09614563 52.99715942 229.09614563 51.74291992 229.09460449 C48.70359889 229.08940258 45.66429793 229.07544147 42.625 229.0625 C32.415625 229.0315625 32.415625 229.0315625 22 229 C22 215.14 22 201.28 22 187 C36.4375 186.6875 36.4375 186.6875 40.93530273 186.61206055 C49.30096012 186.38038578 56.94458414 186.13373044 63.75 180.875 C66.67256721 177.14060856 69.04184974 173.32056381 71 169 C71.33725098 168.39091797 71.67450195 167.78183594 72.02197266 167.15429688 C73.73781081 163.46123982 74.30529054 161.06753207 73.16748047 157.08886719 C71.90808881 154.27344849 70.56432963 151.53457166 69.10290527 148.81863403 C67.74771587 146.29835559 66.46049373 143.74516607 65.1673584 141.19264221 C64.4826171 139.84250948 63.79449066 138.49408874 63.10314941 137.14732361 C59.73132752 130.56022029 56.67577256 123.84623604 53.65731812 117.09158325 C47.87825457 104.1675593 41.89361434 91.34681804 35.8125 78.5625 C28.77173128 63.75435419 21.81388001 48.91434049 15 34 C14.34622933 32.57094619 13.69241836 31.14191082 13.03857422 29.71289062 C11.28510744 25.87937237 9.53443357 22.04458889 7.78573608 18.20889282 C7.09844177 16.70164073 6.41064128 15.19461933 5.72232056 13.68783569 C4.76608298 11.59354092 3.81235986 9.49812024 2.859375 7.40234375 C2.4244297 6.45128754 2.4244297 6.45128754 1.98069763 5.48101807 C0 1.11447924 0 1.11447924 0 0 Z " fill="#FF6900" transform="translate(1288,954)"/>
<path d="M0 0 C0.90492187 0.42023437 1.80984375 0.84046875 2.7421875 1.2734375 C14.94158573 7.39003329 24.22116724 16.44923061 29.28125 29.23828125 C31.52336026 36.05269494 32.26445621 41.64456208 33 49 C17.49 49 1.98 49 -14 49 C-14.99 46.03 -15.98 43.06 -17 40 C-20.5481212 34.82166095 -24.1289291 31.94611371 -30.26953125 30.4453125 C-39.52626895 28.93562996 -48.80584526 29.07709294 -57 34 C-59.79083937 36.58663161 -60.76768278 38.28756052 -61.9375 41.875 C-62.02057513 46.02875664 -61.06494351 48.40300163 -59 52 C-49.10263265 59.4654428 -36.42708338 61.4171333 -24.5625 63.9375 C-5.58245158 68.00372441 15.75354631 73.91112618 27.78125 90.44921875 C35.3305038 102.53172545 37.97444615 115.11954361 34.8125 129.125 C31.00700124 142.77898862 22.66208995 152.14453802 10.5 159.2109375 C1.4627754 163.83041168 -7.94672002 166.71533124 -18 168 C-18.85722656 168.11085938 -19.71445313 168.22171875 -20.59765625 168.3359375 C-45.62966974 171.06402144 -71.20350208 168.01565322 -92 153 C-93.13695312 152.21689453 -93.13695312 152.21689453 -94.296875 151.41796875 C-95.13992188 150.71607422 -95.13992188 150.71607422 -96 150 C-96 149.34 -96 148.68 -96 148 C-96.5878125 147.77183594 -97.175625 147.54367187 -97.78125 147.30859375 C-105.79589948 142.58164379 -109.33168874 130.26158384 -111.6015625 121.7421875 C-112.1646865 117.86656938 -112 113.91631516 -112 110 C-96.16 110 -80.32 110 -64 110 C-61 120 -61 120 -60.125 123 C-58.54818904 125.80321948 -57.0398429 126.0542711 -54 127 C-52.824375 127.515625 -51.64875 128.03125 -50.4375 128.5625 C-42.38431924 131.93019377 -32.59887831 132.38281021 -24.08984375 130.28125 C-19.66196117 128.44800312 -16.19430365 126.3886073 -14 122 C-13.11190292 116.9019812 -13.30678542 113.22467909 -15.875 108.6875 C-25.1405185 99.57597904 -39.92862878 98.01134164 -52.13891602 95.5534668 C-70.63468556 91.80661553 -91.2985933 86.37606339 -102.6875 70.06640625 C-109.98581895 58.57589815 -111.68324106 46.41505403 -109.5 32.90625 C-106.16589034 19.41826092 -98.72968633 10.14490166 -87 3 C-62.86560653 -9.92043287 -24.89187743 -12.07625737 0 0 Z " fill="#FF6900" transform="translate(1583,956)"/>
<path d="M0 0 C10.08723985 9.31427128 14.46293821 21.00430952 16.7890625 34.1953125 C16.7890625 35.8453125 16.7890625 37.4953125 16.7890625 39.1953125 C1.2790625 39.1953125 -14.2309375 39.1953125 -30.2109375 39.1953125 C-31.2009375 36.2253125 -32.1909375 33.2553125 -33.2109375 30.1953125 C-36.76027136 25.01520363 -40.33932895 22.14986426 -46.4765625 20.63671875 C-54.87909694 19.28030962 -64.58183123 18.94434863 -72.2109375 23.1953125 C-75.33061822 25.80565759 -76.9217529 27.58414115 -77.6484375 31.6328125 C-77.84532182 35.76738331 -77.89952192 38.19426038 -75.49414062 41.69116211 C-67.98555682 49.92635716 -53.26293134 51.31950044 -42.7734375 53.6953125 C-22.27352793 58.34867883 -0.27876263 63.79953945 12.70703125 81.86328125 C19.91773296 94.20159306 21.69099085 107.52233062 18.2265625 121.3203125 C14.05925125 134.55079717 5.22951652 143.55575283 -6.8984375 149.9453125 C-32.32222088 162.23278993 -62.7868207 161.89632787 -89.2109375 153.1953125 C-90.11714844 152.89753906 -91.02335937 152.59976562 -91.95703125 152.29296875 C-104.84969094 147.60655735 -116.2247236 137.983507 -122.92578125 126 C-126.9144312 117.29528674 -128.2109375 109.79375762 -128.2109375 100.1953125 C-112.3709375 100.1953125 -96.5309375 100.1953125 -80.2109375 100.1953125 C-79.2209375 103.4953125 -78.2309375 106.7953125 -77.2109375 110.1953125 C-73.54308526 115.88048348 -69.99676184 118.49572232 -63.54296875 120.53515625 C-54.59026345 122.30890443 -44.0720072 122.91103758 -35.87890625 118.39453125 C-32.3178599 115.83424734 -30.6246846 113.46413692 -29.2734375 109.3203125 C-29.19108386 105.20263039 -30.21735921 102.78375343 -32.2109375 99.1953125 C-38.39602339 93.01022661 -46.5703687 90.57134094 -54.8984375 88.7578125 C-56.25787476 88.44541626 -56.25787476 88.44541626 -57.64477539 88.12670898 C-61.42740894 87.25825885 -65.21500969 86.41384592 -69.00585938 85.58203125 C-87.85047791 81.43594768 -106.70726891 76.09641443 -119.2109375 60.1953125 C-126.29910759 48.02097456 -128.10507771 34.69012822 -125.0234375 20.9453125 C-121.64129351 8.94976443 -115.02638078 0.3098598 -104.3984375 -6.1015625 C-94.79384913 -11.2334259 -85.09399485 -14.64241924 -74.2109375 -15.8046875 C-73.33308594 -15.91425781 -72.45523437 -16.02382813 -71.55078125 -16.13671875 C-46.76792529 -18.87414761 -19.88300407 -16.2295899 0 0 Z " fill="#FF6900" transform="translate(1272.2109375,965.8046875)"/>
<path d="M0 0 C12.21 0 24.42 0 37 0 C42 16 42 16 42 20 C42.7425 19.21625 43.485 18.4325 44.25 17.625 C46.54433318 15.43495469 48.12158858 14.17268614 51 13 C51 12.34 51 11.68 51 11 C61.67209212 2.94148146 75.28637212 -0.1523387 88.46484375 -0.09765625 C89.70613037 -0.09515869 90.94741699 -0.09266113 92.22631836 -0.09008789 C93.7810083 -0.08098389 95.33569824 -0.07187988 96.9375 -0.0625 C104.3934375 -0.0315625 104.3934375 -0.0315625 112 0 C112 14.52 112 29.04 112 44 C99.25 44.3125 99.25 44.3125 95.30957031 44.38793945 C84.0211649 44.73846337 71.19700806 46.12915026 62.625 54.25 C62.08875 54.8275 61.5525 55.405 61 56 C60.34 56 59.68 56 59 56 C58.7525 56.66 58.505 57.32 58.25 58 C57 61 57 61 55.0625 64.4375 C49.17182135 76.28580944 49.53330782 89.6322566 49.48828125 102.5234375 C49.4713961 104.36432054 49.45324085 106.20519232 49.43388367 108.04605103 C49.38679346 112.84298175 49.35672093 117.63986683 49.33044434 122.43695068 C49.29513344 128.2184489 49.23823979 133.99977186 49.18505096 139.78112793 C49.10701882 148.52072823 49.05604974 157.2601068 49 166 C32.83 166 16.66 166 0 166 C0 111.22 0 56.44 0 0 Z " fill="#09243F" transform="translate(835,954)"/>
<path d="M0 0 C8.91254065 0.21857021 8.91254065 0.21857021 12.91699219 3.07055664 C16.14141389 6.70644747 16.11644259 10.53868159 15.97949219 15.19555664 C15.8725 16.47817383 15.76550781 17.76079102 15.65527344 19.08227539 C15.66851175 22.95227578 16.29170796 23.65057186 18.66699219 26.50805664 C19.20605469 29.05883789 19.20605469 29.05883789 19.29199219 31.82055664 C19.34613281 32.72418945 19.40027344 33.62782227 19.45605469 34.55883789 C18.20371894 39.23959775 15.83824422 42.04042719 11.66699219 44.50805664 C7.31426316 45.33629841 3.13985051 45.17372185 -1.27050781 44.94555664 C-2.43130859 44.91397461 -3.59210938 44.88239258 -4.78808594 44.84985352 C-7.63902814 44.76772761 -10.48468041 44.65294082 -13.33300781 44.50805664 C-13.35765294 38.40250954 -13.37584152 32.29699113 -13.38793945 26.19140625 C-13.3929807 24.11262508 -13.39981356 22.03384748 -13.40844727 19.95507812 C-13.42052203 16.97403078 -13.42623805 13.99303015 -13.43066406 11.01196289 C-13.43840599 9.60884605 -13.43840599 9.60884605 -13.44630432 8.17738342 C-13.44637985 7.31656662 -13.44645538 6.45574982 -13.4465332 5.56884766 C-13.44875381 4.80717789 -13.45097443 4.04550812 -13.45326233 3.26075745 C-13.10925448 -1.7531319 -3.73687512 0.01086684 0 0 Z M-4.33300781 10.50805664 C-4.33300781 13.14805664 -4.33300781 15.78805664 -4.33300781 18.50805664 C-2.87507897 18.56205401 -1.41658069 18.60084841 0.04199219 18.63305664 C1.26015625 18.66786133 1.26015625 18.66786133 2.50292969 18.70336914 C4.88041462 18.72175715 4.88041462 18.72175715 6.66699219 16.50805664 C6.34500253 13.40878845 6.34500253 13.40878845 5.66699219 10.50805664 C2.36699219 10.50805664 -0.93300781 10.50805664 -4.33300781 10.50805664 Z M-4.33300781 27.50805664 C-4.33300781 30.14805664 -4.33300781 32.78805664 -4.33300781 35.50805664 C-2.35391384 35.53492217 -0.3747181 35.5543904 1.60449219 35.57055664 C3.25771484 35.58795898 3.25771484 35.58795898 4.94433594 35.60571289 C7.58146853 35.82068235 7.58146853 35.82068235 8.66699219 34.50805664 C8.83365885 31.50805664 8.83365885 31.50805664 8.66699219 28.50805664 C7.58146853 27.19543093 7.58146853 27.19543093 4.94433594 27.41040039 C3.8421875 27.42200195 2.74003906 27.43360352 1.60449219 27.44555664 C0.49976563 27.45458008 -0.60496094 27.46360352 -1.74316406 27.47290039 C-2.5978125 27.48450195 -3.45246094 27.49610352 -4.33300781 27.50805664 Z " fill="#FF6900" transform="translate(460.3330078125,1132.491943359375)"/>
<path d="M0 0 C5.31485951 0.08268266 9.08703445 0.19216138 13.20776367 3.91162109 C14.81323242 5.81005859 14.81323242 5.81005859 16.02026367 7.53662109 C16.68026367 8.19662109 17.34026367 8.85662109 18.02026367 9.53662109 C18.61197816 13.38643801 18.57637742 17.27184397 18.64526367 21.16162109 C18.70327148 22.23025391 18.7612793 23.29888672 18.82104492 24.39990234 C18.91120181 30.03817564 18.49279939 33.89073597 14.76245117 38.27880859 C9.47498695 42.79329982 4.17279577 42.45041496 -2.47973633 42.03662109 C-3.58833008 42.00052734 -4.69692383 41.96443359 -5.83911133 41.92724609 C-8.55630667 41.8335497 -11.26615574 41.70255029 -13.97973633 41.53662109 C-14.00438338 35.85832031 -14.02257095 30.1800504 -14.03466797 24.50170898 C-14.03970889 22.56843524 -14.04654152 20.63516533 -14.05517578 18.7019043 C-14.06725197 15.92935238 -14.07296689 13.15685068 -14.07739258 10.38427734 C-14.08255386 9.51448746 -14.08771515 8.64469757 -14.09303284 7.74855042 C-14.09322818 5.67756295 -14.041818 3.60667785 -13.97973633 1.53662109 C-11.23802542 -1.20508981 -3.67957507 0.046191 0 0 Z M-4.97973633 10.53662109 C-4.97973633 17.79662109 -4.97973633 25.05662109 -4.97973633 32.53662109 C-1.67973633 32.53662109 1.62026367 32.53662109 5.02026367 32.53662109 C8.42183246 29.77427524 8.42183246 29.77427524 8.38354492 25.59521484 C8.38221809 24.05475783 8.3647165 22.51424726 8.33276367 20.97412109 C8.33598633 20.19359375 8.33920898 19.41306641 8.3425293 18.60888672 C8.46970867 14.09743808 8.46970867 14.09743808 6.02026367 10.53662109 C2.39026367 10.53662109 -1.23973633 10.53662109 -4.97973633 10.53662109 Z " fill="#FF6900" transform="translate(579.979736328125,1135.46337890625)"/>
<path d="M0 0 C3.16033344 1.91987683 5.52529144 4.27431863 8 7 C8.52311768 7.38671875 9.04623535 7.7734375 9.58520508 8.171875 C11.78602799 11.01566481 11.33632379 13.53355727 11.29296875 17.07421875 C11.28872391 17.7580513 11.28447906 18.44188385 11.28010559 19.1464386 C11.26333353 21.32719561 11.22568657 23.50702309 11.1875 25.6875 C11.17245114 27.16730435 11.15876308 28.6471232 11.14648438 30.12695312 C11.11343569 33.75160336 11.06166446 37.37571094 11 41 C9.52093108 41.02689216 8.04172517 41.04634621 6.5625 41.0625 C5.32693359 41.07990234 5.32693359 41.07990234 4.06640625 41.09765625 C2 41 2 41 1 40 C0.85884839 37.32941149 0.95752893 34.67567762 1 32 C-3.29 32 -7.58 32 -12 32 C-12 34.97 -12 37.94 -12 41 C-14.97 41 -17.94 41 -21 41 C-21.19922632 36.58943576 -21.34358566 32.18131614 -21.43945312 27.76757812 C-21.47944767 26.26971784 -21.53386764 24.77216521 -21.60351562 23.27539062 C-22.16643947 10.85795281 -22.16643947 10.85795281 -19.25390625 6.21875 C-13.42148002 0.31249559 -8.27961058 -1.3948131 0 0 Z M-10.70703125 11.16796875 C-12.51829059 13.73437548 -12.29707546 15.58286185 -12.1875 18.6875 C-12.125625 20.440625 -12.06375 22.19375 -12 24 C-7.71 24 -3.42 24 1 24 C1.061875 22.246875 1.12375 20.49375 1.1875 18.6875 C1.22230469 17.70136719 1.25710938 16.71523437 1.29296875 15.69921875 C1.22059851 12.9981676 1.22059851 12.9981676 -0.29296875 11.16796875 C-3.45656603 9.00340219 -7.54343397 9.00340219 -10.70703125 11.16796875 Z " fill="#FF6900" transform="translate(820,1136)"/>
<path d="M0 0 C1.33708008 -0.00193359 1.33708008 -0.00193359 2.70117188 -0.00390625 C3.63380859 -0.00003906 4.56644531 0.00382812 5.52734375 0.0078125 C6.46384766 0.00394531 7.40035156 0.00007813 8.36523438 -0.00390625 C9.70038086 -0.00197266 9.70038086 -0.00197266 11.0625 0 C11.88242432 0.00112793 12.70234863 0.00225586 13.54711914 0.00341797 C15.46484375 0.1328125 15.46484375 0.1328125 16.46484375 1.1328125 C16.53664339 2.65209288 16.54876382 4.17448732 16.52734375 5.6953125 C16.51832031 6.52160156 16.50929688 7.34789062 16.5 8.19921875 C16.48839844 8.83730469 16.47679687 9.47539063 16.46484375 10.1328125 C15.20027344 10.19339844 13.93570313 10.25398438 12.6328125 10.31640625 C10.97264504 10.40082154 9.31248938 10.48546905 7.65234375 10.5703125 C6.81896484 10.60962891 5.98558594 10.64894531 5.12695312 10.68945312 C3.92329102 10.75229492 3.92329102 10.75229492 2.6953125 10.81640625 C1.95692139 10.85306396 1.21853027 10.88972168 0.45776367 10.92749023 C-1.74265125 11.08123391 -1.74265125 11.08123391 -4.53515625 12.1328125 C-4.86515625 13.7828125 -5.19515625 15.4328125 -5.53515625 17.1328125 C0.40484375 17.1328125 6.34484375 17.1328125 12.46484375 17.1328125 C12.46484375 19.7728125 12.46484375 22.4128125 12.46484375 25.1328125 C11.46484375 26.1328125 11.46484375 26.1328125 7.6484375 26.23046875 C6.06637693 26.22379339 4.48433216 26.21183125 2.90234375 26.1953125 C2.09603516 26.19080078 1.28972656 26.18628906 0.45898438 26.18164062 C-1.53909381 26.16981768 -3.53713408 26.15188164 -5.53515625 26.1328125 C-4.72815195 28.76467311 -4.72815195 28.76467311 -2.53515625 31.1328125 C0.67440919 31.93385206 3.85631145 31.92361221 7.15234375 31.9453125 C8.04501953 31.97044922 8.93769531 31.99558594 9.85742188 32.02148438 C12.05942145 32.08036137 14.2621811 32.10944771 16.46484375 32.1328125 C16.46484375 35.1028125 16.46484375 38.0728125 16.46484375 41.1328125 C-6.39686394 42.79151261 -6.39686394 42.79151261 -12.47265625 38.0078125 C-17.69684137 31.03480635 -17.13659603 20.84937482 -16.09765625 12.56884766 C-15.01303316 7.87163881 -12.41221657 5.2842002 -8.69921875 2.42578125 C-5.48854307 0.50748946 -3.7268627 0.00511982 0 0 Z " fill="#FF6900" transform="translate(881.53515625,1135.8671875)"/>
<path d="M0 0 C1.33708008 -0.00193359 1.33708008 -0.00193359 2.70117188 -0.00390625 C3.63380859 -0.00003906 4.56644531 0.00382812 5.52734375 0.0078125 C6.46384766 0.00394531 7.40035156 0.00007813 8.36523438 -0.00390625 C9.70038086 -0.00197266 9.70038086 -0.00197266 11.0625 0 C11.88242432 0.00112793 12.70234863 0.00225586 13.54711914 0.00341797 C15.46484375 0.1328125 15.46484375 0.1328125 16.46484375 1.1328125 C16.59765625 2.9453125 16.59765625 2.9453125 16.58984375 5.1328125 C16.59371094 6.215625 16.59371094 6.215625 16.59765625 7.3203125 C16.46484375 9.1328125 16.46484375 9.1328125 15.46484375 10.1328125 C14.05156428 10.28901805 12.63129785 10.38337423 11.2109375 10.44921875 C9.92993164 10.51206055 9.92993164 10.51206055 8.62304688 10.57617188 C7.72521484 10.61548828 6.82738281 10.65480469 5.90234375 10.6953125 C5.00064453 10.73849609 4.09894531 10.78167969 3.16992188 10.82617188 C0.9350589 10.93259392 -1.29991933 11.03461238 -3.53515625 11.1328125 C-3.20515625 12.4528125 -2.87515625 13.7728125 -2.53515625 15.1328125 C-1.68953125 15.12378906 -0.84390625 15.11476563 0.02734375 15.10546875 C6.96959327 15.28691391 12.13307165 15.75650134 17.11328125 20.90625 C19.19967137 24.34336667 19.38892629 27.32940236 19.4296875 31.2890625 C17.90261891 35.78989623 15.54457374 38.66346815 11.46484375 41.1328125 C7.2762762 41.95770719 3.2752536 41.79972484 -0.97265625 41.5703125 C-2.08576172 41.53873047 -3.19886719 41.50714844 -4.34570312 41.47460938 C-7.07827697 41.39251488 -9.80531566 41.27776261 -12.53515625 41.1328125 C-12.6328125 34.98046875 -12.6328125 34.98046875 -12.53515625 33.1328125 C-11.02094624 31.61860249 -9.61042857 31.91971394 -7.5 31.81640625 C-6.69111328 31.77451172 -5.88222656 31.73261719 -5.04882812 31.68945312 C-4.19869141 31.65013672 -3.34855469 31.61082031 -2.47265625 31.5703125 C-1.61865234 31.52712891 -0.76464844 31.48394531 0.11523438 31.43945312 C2.23156412 31.33304548 4.34818188 31.23239519 6.46484375 31.1328125 C6.79484375 29.4828125 7.12484375 27.8328125 7.46484375 26.1328125 C6.61921875 26.225625 5.77359375 26.3184375 4.90234375 26.4140625 C-3.97049926 26.97869796 -3.97049926 26.97869796 -8.1796875 24.703125 C-11.99150346 21.28279285 -14.0455789 18.23478488 -14.47265625 13.0703125 C-14.07987713 8.07970716 -11.94009889 5.6268467 -8.26171875 2.41015625 C-5.35456477 0.25938849 -3.566367 0.00489934 0 0 Z " fill="#FF6900" transform="translate(739.53515625,1135.8671875)"/>
<path d="M0 0 C4.63119585 2.70153091 9.09777327 6.92739538 11 12 C10.6875 15.8125 10.6875 15.8125 10 19 C7.36 19 4.72 19 2 19 C1.525625 17.865625 1.05125 16.73125 0.5625 15.5625 C-0.63622083 12.24259834 -0.63622083 12.24259834 -2 11 C-6.02538207 10.59688406 -6.02538207 10.59688406 -9.671875 12.046875 C-11.69300072 15.0191187 -11.43441021 18.03440425 -11.375 21.5 C-11.38660156 22.17675781 -11.39820313 22.85351562 -11.41015625 23.55078125 C-11.3928021 26.48363237 -11.34403751 28.50950081 -9.6328125 30.94921875 C-7.30325841 32.44838155 -5.71496593 32.33937074 -3 32 C0.31460705 30.29107501 0.31460705 30.29107501 0.6875 26.875 C0.790625 25.92625 0.89375 24.9775 1 24 C2.47906892 23.97310784 3.95827483 23.95365379 5.4375 23.9375 C6.26121094 23.92589844 7.08492187 23.91429687 7.93359375 23.90234375 C10 24 10 24 11 25 C11.37647684 29.19633942 10.73705048 32.71227963 8.640625 36.375 C5.63683828 39.96927471 3.25532387 41.72298312 -1.36328125 42.7421875 C-7.50954429 43.07227681 -11.96574335 42.77332502 -16.75 38.6875 C-22.79420413 32.41992311 -22.52764261 27.24566704 -22.58105469 18.92041016 C-22.46813241 13.72508918 -22.33416599 9.93500816 -18.75 5.875 C-16.921875 4.3046875 -16.921875 4.3046875 -15 3 C-14.3709375 2.45859375 -13.741875 1.9171875 -13.09375 1.359375 C-9.06274475 -1.2577702 -4.58848949 -0.89361467 0 0 Z " fill="#FF6900" transform="translate(784,1136)"/>
<path d="M0 0 C4.30599849 2.57806972 7.23564057 5.85346085 10 10 C11.28824042 18.06882724 11.55541026 27.7430877 8.73828125 35.453125 C5.78521215 39.42471468 3.24643241 40.70962234 -1.5546875 41.828125 C-7.91240603 42.31422823 -13.25110249 41.78121078 -18.4375 37.875 C-23.7801979 31.50446879 -23.41057922 23.09624133 -22.90625 15.17578125 C-22.31112882 10.43256403 -21.06605268 7.64531106 -17.625 4.1875 C-11.95537246 -0.17721327 -7.11812092 -1.19753044 0 0 Z M-13 14 C-13.63241044 17.09608549 -13.63241044 17.09608549 -13.5 20.4375 C-13.5103125 21.54996094 -13.520625 22.66242188 -13.53125 23.80859375 C-12.89608709 27.62424155 -11.73485087 29.30478465 -9 32 C-6 32.75 -6 32.75 -3 32 C-0.69901607 30.49256472 -0.69901607 30.49256472 1 28 C1.63407909 24.37576738 1.63407909 24.37576738 1.5 20.4375 C1.51546875 19.76525391 1.5309375 19.09300781 1.546875 18.40039062 C1.52125211 15.17510957 1.42049262 13.44187361 -0.84375 11.0625 C-6.07311411 8.48571189 -9.53386203 9.53514431 -13 14 Z " fill="#FF6900" transform="translate(689,1136)"/>
<path d="M0 0 C3.5 0.125 3.5 0.125 4.5 1.125 C4.60939177 3.00424137 4.65586786 4.88721403 4.67578125 6.76953125 C4.69962891 7.92130859 4.72347656 9.07308594 4.74804688 10.25976562 C4.79080719 12.69969523 4.8221704 15.13985279 4.84179688 17.58007812 C4.86951172 18.73572266 4.89722656 19.89136719 4.92578125 21.08203125 C4.94036377 22.14397705 4.95494629 23.20592285 4.9699707 24.30004883 C5.62299871 27.78055874 6.73950668 28.97222841 9.5 31.125 C12 31.79166667 12 31.79166667 14.5 31.125 C17.26049332 28.97222841 18.37700129 27.78055874 19.0300293 24.30004883 C19.04461182 23.23810303 19.05919434 22.17615723 19.07421875 21.08203125 C19.10193359 19.92638672 19.12964844 18.77074219 19.15820312 17.58007812 C19.16787109 16.37802734 19.17753906 15.17597656 19.1875 13.9375 C19.22937461 11.54810941 19.2747492 9.15877667 19.32421875 6.76953125 C19.33541748 5.71096924 19.34661621 4.65240723 19.3581543 3.56176758 C19.5 1.125 19.5 1.125 20.5 0.125 C24 0 24 0 27.5 0.125 C30.24527329 2.87027329 28.99528054 10.50989338 29.06982422 14.43286133 C29.10631499 15.92397767 29.16071899 17.41477392 29.23388672 18.90454102 C29.82312858 31.08989968 29.82312858 31.08989968 26.69604492 35.8996582 C22.4493703 39.93370628 18.55627452 42.25044512 12.5625 42.1875 C11.46035156 42.21972656 10.35820312 42.25195312 9.22265625 42.28515625 C3.19946003 40.40804263 -0.93109625 37.35603866 -4.5 32.125 C-5.71281225 26.71665061 -5.501922 21.62580982 -5.1875 16.125 C-5.14583385 14.68111388 -5.10868829 13.23708989 -5.07617188 11.79296875 C-4.74587468 0.16949552 -4.74587468 0.16949552 0 0 Z " fill="#FF6900" transform="translate(487.5,1135.875)"/>
<path d="M0 0 C0.77915771 0.00202423 1.55831543 0.00404846 2.36108398 0.00613403 C3.15635498 0.00517731 3.95162598 0.00422058 4.77099609 0.00323486 C6.45564859 0.0025531 8.1403037 0.00440711 9.82495117 0.00857544 C12.41257595 0.01392378 15.00002714 0.00863034 17.58764648 0.00222778 C19.22045937 0.00288857 20.85327215 0.00416973 22.48608398 0.00613403 C23.2652417 0.0041098 24.04439941 0.00208557 24.84716797 0 C30.30863294 0.02399549 30.30863294 0.02399549 31.42358398 1.13894653 C31.56551736 4.14225671 31.46594777 7.13111787 31.42358398 10.13894653 C26.80358398 10.13894653 22.18358398 10.13894653 17.42358398 10.13894653 C17.42358398 20.36894653 17.42358398 30.59894653 17.42358398 41.13894653 C14.12358398 41.13894653 10.82358398 41.13894653 7.42358398 41.13894653 C7.42358398 30.90894653 7.42358398 20.67894653 7.42358398 10.13894653 C2.80358398 10.13894653 -1.81641602 10.13894653 -6.57641602 10.13894653 C-6.67407227 3.20535278 -6.67407227 3.20535278 -6.57641602 1.13894653 C-4.78811153 -0.64935795 -2.3806045 0.01045942 0 0 Z " fill="#FF6900" transform="translate(631.576416015625,1135.8610534667969)"/>
<path d="M0 0 C0.721875 0.00257812 1.44375 0.00515625 2.1875 0.0078125 C2.909375 0.00523438 3.63125 0.00265625 4.375 0 C6.1875 0.1328125 6.1875 0.1328125 7.1875 1.1328125 C7.30931215 3.18117999 7.36723981 5.23340717 7.3984375 7.28515625 C7.42679688 8.53619141 7.45515625 9.78722656 7.484375 11.07617188 C7.53637919 13.73488603 7.58067391 16.39376237 7.6171875 19.05273438 C7.648125 20.30505859 7.6790625 21.55738281 7.7109375 22.84765625 C7.73075684 24.00386475 7.75057617 25.16007324 7.77099609 26.35131836 C7.90844238 27.26921143 8.04588867 28.18710449 8.1875 29.1328125 C11.59439682 31.40407705 13.29013559 31.46754006 17.3125 31.6953125 C23.08941083 32.03472333 23.08941083 32.03472333 24.1875 33.1328125 C24.32865161 35.80340101 24.22997107 38.45713488 24.1875 41.1328125 C21.36962344 41.37903472 18.57357524 41.55513501 15.75 41.6953125 C14.96689453 41.77072266 14.18378906 41.84613281 13.37695312 41.92382812 C8.20236068 42.1154797 5.12931292 40.91843582 1.12890625 37.59765625 C-4.57274871 31.26421821 -3.84513274 24.11181219 -3.4375 16.1328125 C-3.40085906 14.68890005 -3.36827472 13.24487868 -3.33984375 11.80078125 C-3.04678679 0.22325593 -3.04678679 0.22325593 0 0 Z " fill="#FF6900" transform="translate(837.8125,1135.8671875)"/>
<path d="M0 0 C0.721875 0.00257812 1.44375 0.00515625 2.1875 0.0078125 C2.909375 0.00523438 3.63125 0.00265625 4.375 0 C6.1875 0.1328125 6.1875 0.1328125 7.1875 1.1328125 C7.3215473 3.18085161 7.39108567 5.23317527 7.43359375 7.28515625 C7.46646484 8.53619141 7.49933594 9.78722656 7.53320312 11.07617188 C7.59430931 13.73494111 7.65161256 16.39380052 7.70507812 19.05273438 C7.75631836 20.9312207 7.75631836 20.9312207 7.80859375 22.84765625 C7.8336499 24.00386475 7.85870605 25.16007324 7.88452148 26.35131836 C7.90880534 29.27170388 7.90880534 29.27170388 10.1875 31.1328125 C13.30946336 31.59767968 13.30946336 31.59767968 16.8125 31.7578125 C18.59527344 31.86996094 18.59527344 31.86996094 20.4140625 31.984375 C21.32929687 32.03335937 22.24453125 32.08234375 23.1875 32.1328125 C23.1875 35.1028125 23.1875 38.0728125 23.1875 41.1328125 C20.53593644 41.37939878 17.90765576 41.55520178 15.25 41.6953125 C14.51458984 41.77072266 13.77917969 41.84613281 13.02148438 41.92382812 C7.99400689 42.12141458 5.03544429 40.81457353 1.16015625 37.59765625 C-3.60538107 32.33632464 -3.85740642 27.21241125 -3.65234375 20.37109375 C-3.58129503 18.95830476 -3.50967393 17.54554445 -3.4375 16.1328125 C-3.40085906 14.68890005 -3.36827472 13.24487868 -3.33984375 11.80078125 C-3.04678679 0.22325593 -3.04678679 0.22325593 0 0 Z " fill="#FF6900" transform="translate(537.8125,1135.8671875)"/>
<path d="M0 0 C0.721875 0.00257812 1.44375 0.00515625 2.1875 0.0078125 C2.909375 0.00523438 3.63125 0.00265625 4.375 0 C6.1875 0.1328125 6.1875 0.1328125 7.1875 1.1328125 C7.27618299 4.08986571 7.30270296 7.02346306 7.28515625 9.98046875 C7.2837413 10.8668956 7.28232635 11.75332245 7.28086853 12.66661072 C7.27525215 15.50954504 7.26269691 18.35240181 7.25 21.1953125 C7.24498711 23.11783741 7.24042384 25.04036354 7.23632812 26.96289062 C7.22527741 31.68622799 7.20800183 36.40950708 7.1875 41.1328125 C5.70843108 41.15970466 4.22922517 41.17915871 2.75 41.1953125 C1.92628906 41.20691406 1.10257813 41.21851563 0.25390625 41.23046875 C-1.8125 41.1328125 -1.8125 41.1328125 -2.8125 40.1328125 C-2.91356874 37.26017194 -2.95219672 34.41207622 -2.9453125 31.5390625 C-2.94626923 30.67720337 -2.94722595 29.81534424 -2.94821167 28.92736816 C-2.9488935 27.10148038 -2.94703904 25.27559019 -2.94287109 23.44970703 C-2.93752286 20.64480172 -2.94281599 17.84005655 -2.94921875 15.03515625 C-2.94855797 13.26562464 -2.94727681 11.49609314 -2.9453125 9.7265625 C-2.94733673 8.88178345 -2.94936096 8.03700439 -2.95144653 7.16662598 C-2.92326007 0.2142044 -2.92326007 0.2142044 0 0 Z " fill="#FF6900" transform="translate(522.8125,1135.8671875)"/>
</svg>
